<svg id="visual" viewBox="0 0 900 600" width="900" height="600" xmlns="http://www.w3.org/2000/svg" xmlns:xlink="http://www.w3.org/1999/xlink" version="1.1"><g transform="translate(442.53522309973255 287.03261493446223)"><path d="M142.6 -175.7C178.6 -139.8 197.1 -88.9 213.2 -32.5C229.2 24 242.8 86 223.9 139.3C205.1 192.6 153.9 237.3 98 248.8C42.1 260.3 -18.5 238.7 -73.2 213.4C-128 188.2 -177 159.4 -200.6 116.7C-224.2 74 -222.4 17.6 -204.8 -28.1C-187.2 -73.8 -153.9 -108.7 -117.1 -144.4C-80.4 -180.1 -40.2 -216.5 6.6 -224.4C53.4 -232.2 106.7 -211.5 142.6 -175.7" fill="#a3efa1"></path></g></svg>